<svg width="400" height="77" viewBox="0 0 400 77" fill="none" xmlns="http://www.w3.org/2000/svg">
<g clip-path="url(#clip0_729_5)">
<path fill-rule="evenodd" clip-rule="evenodd" d="M56.0344 10.387C62.1811 16.5475 65.6331 24.8947 65.6331 33.5972C65.6331 42.2997 62.1811 50.6469 56.0344 56.8074L36.4606 76.3816C36.3222 76.5194 36.2031 76.6383 36.0926 76.7486V64.6102C51.775 62.9732 64.0002 49.7129 64.0002 33.5972C64.0002 16.3753 50.0391 2.41416 32.8172 2.41416C15.5953 2.41416 1.63421 16.3753 1.63421 33.5972C1.63421 49.7081 13.8521 62.9653 29.5278 64.6088V76.7203C29.4457 76.6383 29.3412 76.5345 29.188 76.3816L9.61397 56.8074C3.45825 50.6517 0 42.3027 0 33.5972C0 24.8917 3.45826 16.5427 9.61397 10.387C15.7697 4.23122 24.1187 0.772949 32.8242 0.772949C41.5297 0.772949 49.8787 4.23121 56.0344 10.387Z" fill="white"/>
<path fill-rule="evenodd" clip-rule="evenodd" d="M26.048 11.3086C25.303 11.3086 24.6991 11.8948 24.6991 12.6179V15.2366C24.6991 15.9598 25.303 16.546 26.048 16.546H39.5379C40.283 16.546 40.8871 15.9598 40.8871 15.2366V12.6179C40.8871 11.8948 40.283 11.3086 39.5379 11.3086H26.048ZM17.9541 20.4737C17.9541 19.7506 18.5581 19.1644 19.3031 19.1644H46.2831C47.0281 19.1644 47.6321 19.7506 47.6321 20.4737V28.3297C47.6321 29.0529 47.0281 29.6391 46.2831 29.6391H19.3031C18.5581 29.6391 17.9541 29.0529 17.9541 28.3297V20.4737ZM19.3031 32.2584C18.5581 32.2584 17.9541 32.8446 17.9541 33.5678V41.4238C17.9541 42.1469 18.5581 42.7331 19.3031 42.7331H46.2831C47.0281 42.7331 47.6321 42.1469 47.6321 41.4238V33.5678C47.6321 32.8446 47.0281 32.2584 46.2831 32.2584H19.3031ZM19.3031 45.3509C18.5581 45.3509 17.9541 45.9371 17.9541 46.6602V54.5162C17.9541 55.2393 18.5581 55.8255 19.3031 55.8255H46.2831C47.0281 55.8255 47.6321 55.2393 47.6321 54.5162V46.6602C47.6321 45.9371 47.0281 45.3509 46.2831 45.3509H19.3031Z" fill="#C02247"/>
<path d="M94.7145 60.7734H88.5973V28.8423H77.7336V23.6643H105.553V28.8423H94.7145V60.7734ZM116.594 32.675V60.7734H110.629V32.675H116.594ZM113.65 21.9129C114.564 21.9129 115.35 22.1582 116.01 22.649C116.687 23.1397 117.026 23.9858 117.026 25.1872C117.026 26.3717 116.687 27.2178 116.01 27.7255C115.35 28.2162 114.564 28.4616 113.65 28.4616C112.702 28.4616 111.898 28.2162 111.239 27.7255C110.595 27.2178 110.274 26.3717 110.274 25.1872C110.274 23.9858 110.595 23.1397 111.239 22.649C111.898 22.1582 112.702 21.9129 113.65 21.9129ZM139.185 37.2185H132.357V60.7734H126.392V37.2185H121.798V34.3503L126.392 32.5989V30.6444C126.392 28.2585 126.764 26.3633 127.509 24.9588C128.27 23.5543 129.353 22.5474 130.758 21.9383C132.179 21.3122 133.871 20.9991 135.834 20.9991C137.12 20.9991 138.296 21.1091 139.362 21.3291C140.428 21.5321 141.325 21.769 142.053 22.0398L140.504 26.5579C139.929 26.3717 139.286 26.2025 138.575 26.0502C137.865 25.881 137.103 25.7964 136.291 25.7964C134.937 25.7964 133.939 26.2194 133.296 27.0655C132.67 27.9116 132.357 29.1469 132.357 30.7714V32.675H139.185V37.2185ZM157.993 37.2185H151.165V60.7734H145.2V37.2185H140.606V34.3503L145.2 32.5989V30.6444C145.2 28.2585 145.573 26.3633 146.317 24.9588C147.079 23.5543 148.162 22.5474 149.566 21.9383C150.987 21.3122 152.68 20.9991 154.643 20.9991C155.929 20.9991 157.105 21.1091 158.171 21.3291C159.237 21.5321 160.134 21.769 160.861 22.0398L159.313 26.5579C158.738 26.3717 158.095 26.2025 157.384 26.0502C156.673 25.881 155.912 25.7964 155.099 25.7964C153.746 25.7964 152.747 26.2194 152.104 27.0655C151.478 27.9116 151.165 29.1469 151.165 30.7714V32.675H157.993V37.2185ZM168.73 32.675V60.7734H162.765V32.675H168.73ZM165.785 21.9129C166.699 21.9129 167.486 22.1582 168.146 22.649C168.823 23.1397 169.161 23.9858 169.161 25.1872C169.161 26.3717 168.823 27.2178 168.146 27.7255C167.486 28.2162 166.699 28.4616 165.785 28.4616C164.838 28.4616 164.034 28.2162 163.374 27.7255C162.731 27.2178 162.41 26.3717 162.41 25.1872C162.41 23.9858 162.731 23.1397 163.374 22.649C164.034 22.1582 164.838 21.9129 165.785 21.9129ZM191.879 32.142C195.043 32.142 197.505 32.9627 199.265 34.6041C201.042 36.2286 201.93 38.843 201.93 42.4473V60.7734H195.965V43.5641C195.965 41.3812 195.517 39.7483 194.62 38.6653C193.723 37.5654 192.335 37.0154 190.457 37.0154C187.733 37.0154 185.838 37.8531 184.772 39.5283C183.722 41.2036 183.198 43.6318 183.198 46.8131V60.7734H177.233V32.675H181.878L182.716 36.4824H183.046C183.655 35.501 184.408 34.6972 185.305 34.0711C186.218 33.4281 187.234 32.9458 188.35 32.6243C189.484 32.3028 190.66 32.142 191.879 32.142ZM245.816 50.6712C245.816 52.871 245.275 54.7663 244.192 56.3569C243.126 57.9475 241.586 59.1659 239.572 60.012C237.576 60.858 235.19 61.2811 232.414 61.2811C231.061 61.2811 229.766 61.2049 228.531 61.0526C227.296 60.9003 226.128 60.6804 225.028 60.3927C223.945 60.0881 222.955 59.7243 222.058 59.3013V53.5648C223.564 54.2248 225.248 54.8255 227.109 55.367C228.971 55.8915 230.866 56.1538 232.795 56.1538C234.369 56.1538 235.672 55.9508 236.704 55.5446C237.753 55.1216 238.532 54.5293 239.039 53.7679C239.547 52.9895 239.801 52.0842 239.801 51.052C239.801 49.952 239.505 49.0214 238.912 48.2599C238.32 47.4984 237.423 46.8046 236.222 46.1785C235.037 45.5355 233.548 44.8502 231.754 44.1225C230.536 43.6318 229.369 43.0734 228.252 42.4473C227.152 41.8212 226.17 41.0851 225.307 40.239C224.444 39.3929 223.759 38.3946 223.251 37.2439C222.761 36.0763 222.515 34.7056 222.515 33.1319C222.515 31.0336 223.014 29.2399 224.013 27.7508C225.028 26.2617 226.45 25.1195 228.277 24.3242C230.122 23.5289 232.271 23.1312 234.724 23.1312C236.67 23.1312 238.498 23.3343 240.207 23.7404C241.933 24.1465 243.625 24.7219 245.283 25.4664L243.354 30.3652C241.831 29.7391 240.351 29.2399 238.912 28.8677C237.491 28.4954 236.036 28.3093 234.547 28.3093C233.261 28.3093 232.169 28.5039 231.272 28.8931C230.375 29.2823 229.69 29.8322 229.216 30.5429C228.759 31.2367 228.531 32.0659 228.531 33.0304C228.531 34.1134 228.793 35.0271 229.318 35.7717C229.859 36.4993 230.688 37.1677 231.805 37.7769C232.939 38.3861 234.394 39.063 236.171 39.8075C238.219 40.6536 239.953 41.542 241.374 42.4727C242.813 43.4034 243.913 44.5202 244.674 45.8232C245.436 47.1092 245.816 48.7252 245.816 50.6712ZM263.559 32.142C266.063 32.142 268.212 32.6581 270.006 33.6903C271.8 34.7226 273.179 36.1863 274.143 38.0815C275.108 39.9767 275.59 42.2442 275.59 44.884V48.0822H256.832C256.9 50.8066 257.628 52.9049 259.015 54.3771C260.42 55.8492 262.383 56.5853 264.904 56.5853C266.698 56.5853 268.305 56.4161 269.727 56.0777C271.165 55.7223 272.646 55.2062 274.169 54.5293V59.3774C272.764 60.0373 271.334 60.5196 269.879 60.8242C268.424 61.1288 266.681 61.2811 264.65 61.2811C261.892 61.2811 259.464 60.7481 257.365 59.682C255.284 58.599 253.651 56.9914 252.467 54.8593C251.299 52.7272 250.715 50.079 250.715 46.9146C250.715 43.7672 251.248 41.0936 252.314 38.8937C253.38 36.6939 254.878 35.0187 256.807 33.868C258.736 32.7173 260.987 32.142 263.559 32.142ZM263.559 36.6347C261.68 36.6347 260.157 37.2439 258.99 38.4622C257.839 39.6806 257.162 41.4658 256.959 43.8179H269.752C269.735 42.4134 269.498 41.1697 269.041 40.0867C268.601 39.0037 267.925 38.1577 267.011 37.5485C266.114 36.9393 264.963 36.6347 263.559 36.6347ZM296.556 32.142C297.03 32.142 297.546 32.1674 298.104 32.2182C298.663 32.2689 299.145 32.3366 299.551 32.4212L298.993 38.0054C298.637 37.9038 298.197 37.8277 297.673 37.7769C297.165 37.7262 296.708 37.7008 296.302 37.7008C295.236 37.7008 294.221 37.8784 293.256 38.2338C292.292 38.5722 291.437 39.0968 290.693 39.8075C289.948 40.5013 289.364 41.3728 288.941 42.4219C288.518 43.4711 288.307 44.6894 288.307 46.077V60.7734H282.316V32.675H286.987L287.799 37.6246H288.078C288.637 36.6262 289.33 35.7125 290.16 34.8833C290.989 34.0542 291.936 33.3942 293.002 32.9035C294.085 32.3958 295.27 32.142 296.556 32.142ZM311.176 60.7734L300.49 32.675H306.81L312.598 49.1736C312.97 50.2228 313.308 51.3565 313.613 52.5749C313.918 53.7933 314.129 54.817 314.248 55.6462H314.451C314.569 54.7832 314.797 53.751 315.136 52.5495C315.474 51.3312 315.821 50.2059 316.177 49.1736L321.964 32.675H328.259L317.573 60.7734H311.176ZM338.488 32.675V60.7734H332.523V32.675H338.488ZM335.543 21.9129C336.457 21.9129 337.244 22.1582 337.904 22.649C338.581 23.1397 338.919 23.9858 338.919 25.1872C338.919 26.3717 338.581 27.2178 337.904 27.7255C337.244 28.2162 336.457 28.4616 335.543 28.4616C334.596 28.4616 333.792 28.2162 333.132 27.7255C332.489 27.2178 332.168 26.3717 332.168 25.1872C332.168 23.9858 332.489 23.1397 333.132 22.649C333.792 22.1582 334.596 21.9129 335.543 21.9129ZM358.362 61.2811C355.706 61.2811 353.404 60.765 351.458 59.7328C349.512 58.7005 348.015 57.1184 346.966 54.9862C345.916 52.8541 345.392 50.1466 345.392 46.8638C345.392 43.4457 345.967 40.6536 347.118 38.4876C348.268 36.3217 349.859 34.7226 351.89 33.6903C353.937 32.6581 356.281 32.142 358.921 32.142C360.596 32.142 362.11 32.3112 363.464 32.6497C364.835 32.9712 365.994 33.3688 366.942 33.8426L365.165 38.6145C364.133 38.1915 363.075 37.8361 361.992 37.5485C360.909 37.2608 359.868 37.117 358.87 37.117C357.228 37.117 355.858 37.4808 354.758 38.2084C353.675 38.9361 352.863 40.019 352.321 41.4574C351.797 42.8957 351.534 44.681 351.534 46.8131C351.534 48.8775 351.805 50.6204 352.347 52.0419C352.888 53.4464 353.692 54.5124 354.758 55.2401C355.824 55.9508 357.135 56.3061 358.692 56.3061C360.232 56.3061 361.611 56.12 362.83 55.7477C364.048 55.3754 365.199 54.8932 366.282 54.3009V59.4789C365.216 60.0881 364.073 60.5365 362.855 60.8242C361.637 61.1288 360.139 61.2811 358.362 61.2811ZM384.075 32.142C386.579 32.142 388.728 32.6581 390.522 33.6903C392.316 34.7226 393.695 36.1863 394.659 38.0815C395.624 39.9767 396.106 42.2442 396.106 44.884V48.0822H377.348C377.416 50.8066 378.144 52.9049 379.531 54.3771C380.936 55.8492 382.899 56.5853 385.42 56.5853C387.214 56.5853 388.821 56.4161 390.243 56.0777C391.681 55.7223 393.162 55.2062 394.685 54.5293V59.3774C393.28 60.0373 391.85 60.5196 390.395 60.8242C388.94 61.1288 387.197 61.2811 385.166 61.2811C382.408 61.2811 379.98 60.7481 377.881 59.682C375.8 58.599 374.167 56.9914 372.983 54.8593C371.815 52.7272 371.231 50.079 371.231 46.9146C371.231 43.7672 371.764 41.0936 372.83 38.8937C373.896 36.6939 375.394 35.0187 377.323 33.868C379.252 32.7173 381.503 32.142 384.075 32.142ZM384.075 36.6347C382.196 36.6347 380.673 37.2439 379.506 38.4622C378.355 39.6806 377.678 41.4658 377.475 43.8179H390.268C390.251 42.4134 390.014 41.1697 389.557 40.0867C389.117 39.0037 388.44 38.1577 387.527 37.5485C386.63 36.9393 385.479 36.6347 384.075 36.6347Z" fill="white"/>
</g>
<defs>
<clipPath id="clip0_729_5">
<rect width="399.872" height="75.9756" fill="white" transform="translate(0 0.772949)"/>
</clipPath>
</defs>
</svg>
