<svg width="400" height="76" viewBox="0 0 400 76" fill="none" xmlns="http://www.w3.org/2000/svg">
<g clip-path="url(#clip0_730_10)">
<path fill-rule="evenodd" clip-rule="evenodd" d="M56.0344 9.61353C62.1811 15.774 65.6331 24.1212 65.6331 32.8237C65.6331 41.5262 62.1811 49.8734 56.0344 56.0339L36.4606 75.6081C36.3223 75.746 36.2031 75.8648 36.0926 75.9751V63.8368C51.775 62.1998 64.0002 48.9394 64.0002 32.8237C64.0002 15.6018 50.0391 1.64072 32.8172 1.64072C15.5953 1.64072 1.63421 15.6018 1.63421 32.8237C1.63421 48.9347 13.8521 62.1919 29.5278 63.8353V75.9469C29.4457 75.8648 29.3412 75.7611 29.188 75.6081L9.61397 56.0339C3.45826 49.8782 0 41.5292 0 32.8237C0 24.1182 3.45826 15.7693 9.61397 9.61353C15.7697 3.45778 24.1187 -0.000488281 32.8242 -0.000488281C41.5297 -0.000488281 49.8787 3.45777 56.0344 9.61353Z" fill="black"/>
<path fill-rule="evenodd" clip-rule="evenodd" d="M26.048 10.5356C25.303 10.5356 24.6991 11.1219 24.6991 11.845V14.4637C24.6991 15.1868 25.303 15.773 26.048 15.773H39.5379C40.283 15.773 40.8871 15.1868 40.8871 14.4637V11.845C40.8871 11.1219 40.283 10.5356 39.5379 10.5356H26.048ZM17.9541 19.7008C17.9541 18.9777 18.5581 18.3915 19.3031 18.3915H46.2831C47.0281 18.3915 47.6321 18.9777 47.6321 19.7008V27.5568C47.6321 28.2799 47.0281 28.8661 46.2831 28.8661H19.3031C18.5581 28.8661 17.9541 28.2799 17.9541 27.5568V19.7008ZM19.3031 31.4855C18.5581 31.4855 17.9541 32.0717 17.9541 32.7948V40.6508C17.9541 41.374 18.5581 41.9602 19.3031 41.9602H46.2831C47.0281 41.9602 47.6321 41.374 47.6321 40.6508V32.7948C47.6321 32.0717 47.0281 31.4855 46.2831 31.4855H19.3031ZM19.3031 44.5779C18.5581 44.5779 17.9541 45.1641 17.9541 45.8873V53.7433C17.9541 54.4664 18.5581 55.0526 19.3031 55.0526H46.2831C47.0281 55.0526 47.6321 54.4664 47.6321 53.7433V45.8873C47.6321 45.1641 47.0281 44.5779 46.2831 44.5779H19.3031Z" fill="#C02247"/>
<path d="M94.7145 60.0005H88.5973V28.0693H77.7336V22.8913H105.553V28.0693H94.7145V60.0005ZM116.594 31.9021V60.0005H110.629V31.9021H116.594ZM113.65 21.1399C114.564 21.1399 115.35 21.3853 116.01 21.876C116.687 22.3667 117.026 23.2128 117.026 24.4143C117.026 25.5988 116.687 26.4449 116.01 26.9525C115.35 27.4432 114.564 27.6886 113.65 27.6886C112.702 27.6886 111.898 27.4432 111.239 26.9525C110.595 26.4449 110.274 25.5988 110.274 24.4143C110.274 23.2128 110.595 22.3667 111.239 21.876C111.898 21.3853 112.702 21.1399 113.65 21.1399ZM139.185 36.4456H132.357V60.0005H126.392V36.4456H121.798V33.5773L126.392 31.8259V29.8715C126.392 27.4855 126.764 25.5903 127.509 24.1858C128.27 22.7813 129.353 21.7745 130.758 21.1653C132.179 20.5392 133.871 20.2262 135.834 20.2262C137.12 20.2262 138.296 20.3361 139.362 20.5561C140.428 20.7592 141.325 20.9961 142.053 21.2668L140.504 25.7849C139.929 25.5988 139.286 25.4296 138.575 25.2773C137.865 25.108 137.103 25.0234 136.291 25.0234C134.937 25.0234 133.939 25.4465 133.296 26.2926C132.67 27.1386 132.357 28.3739 132.357 29.9984V31.9021H139.185V36.4456ZM157.993 36.4456H151.165V60.0005H145.2V36.4456H140.606V33.5773L145.2 31.8259V29.8715C145.2 27.4855 145.573 25.5903 146.317 24.1858C147.079 22.7813 148.162 21.7745 149.566 21.1653C150.987 20.5392 152.68 20.2262 154.643 20.2262C155.929 20.2262 157.105 20.3361 158.171 20.5561C159.237 20.7592 160.134 20.9961 160.861 21.2668L159.313 25.7849C158.738 25.5988 158.095 25.4296 157.384 25.2773C156.673 25.108 155.912 25.0234 155.099 25.0234C153.746 25.0234 152.747 25.4465 152.104 26.2926C151.478 27.1386 151.165 28.3739 151.165 29.9984V31.9021H157.993V36.4456ZM168.73 31.9021V60.0005H162.765V31.9021H168.73ZM165.785 21.1399C166.699 21.1399 167.486 21.3853 168.146 21.876C168.823 22.3667 169.161 23.2128 169.161 24.4143C169.161 25.5988 168.823 26.4449 168.146 26.9525C167.486 27.4432 166.699 27.6886 165.785 27.6886C164.838 27.6886 164.034 27.4432 163.374 26.9525C162.731 26.4449 162.41 25.5988 162.41 24.4143C162.41 23.2128 162.731 22.3667 163.374 21.876C164.034 21.3853 164.838 21.1399 165.785 21.1399ZM191.879 31.3691C195.043 31.3691 197.505 32.1898 199.265 33.8312C201.042 35.4556 201.93 38.07 201.93 41.6743V60.0005H195.965V42.7912C195.965 40.6083 195.517 38.9753 194.62 37.8924C193.723 36.7924 192.335 36.2425 190.457 36.2425C187.733 36.2425 185.838 37.0801 184.772 38.7554C183.722 40.4306 183.198 42.8589 183.198 46.0401V60.0005H177.233V31.9021H181.878L182.716 35.7095H183.046C183.655 34.728 184.408 33.9242 185.305 33.2981C186.218 32.6551 187.234 32.1728 188.35 31.8513C189.484 31.5298 190.66 31.3691 191.879 31.3691ZM245.816 49.8983C245.816 52.0981 245.275 53.9933 244.192 55.5839C243.126 57.1746 241.586 58.3929 239.572 59.239C237.576 60.0851 235.19 60.5081 232.414 60.5081C231.061 60.5081 229.766 60.432 228.531 60.2797C227.296 60.1274 226.128 59.9074 225.028 59.6198C223.945 59.3152 222.955 58.9513 222.058 58.5283V52.7919C223.564 53.4518 225.248 54.0525 227.109 54.594C228.971 55.1186 230.866 55.3809 232.795 55.3809C234.369 55.3809 235.672 55.1778 236.704 54.7717C237.753 54.3487 238.532 53.7564 239.039 52.9949C239.547 52.2165 239.801 51.3112 239.801 50.279C239.801 49.1791 239.505 48.2484 238.912 47.4869C238.32 46.7255 237.423 46.0317 236.222 45.4056C235.037 44.7625 233.548 44.0772 231.754 43.3496C230.536 42.8589 229.369 42.3004 228.252 41.6743C227.152 41.0482 226.17 40.3122 225.307 39.4661C224.444 38.62 223.759 37.6216 223.251 36.4709C222.761 35.3033 222.515 33.9327 222.515 32.359C222.515 30.2607 223.014 28.467 224.013 26.9779C225.028 25.4888 226.45 24.3466 228.277 23.5513C230.122 22.7559 232.271 22.3583 234.724 22.3583C236.67 22.3583 238.498 22.5613 240.207 22.9675C241.933 23.3736 243.625 23.9489 245.283 24.6935L243.354 29.5923C241.831 28.9662 240.351 28.467 238.912 28.0947C237.491 27.7224 236.036 27.5363 234.547 27.5363C233.261 27.5363 232.169 27.7309 231.272 28.1201C230.375 28.5093 229.69 29.0593 229.216 29.77C228.759 30.4638 228.531 31.2929 228.531 32.2574C228.531 33.3404 228.793 34.2542 229.318 34.9988C229.859 35.7264 230.688 36.3948 231.805 37.004C232.939 37.6131 234.394 38.29 236.171 39.0346C238.219 39.8806 239.953 40.769 241.374 41.6997C242.813 42.6304 243.913 43.7472 244.674 45.0502C245.436 46.3363 245.816 47.9523 245.816 49.8983ZM263.559 31.3691C266.063 31.3691 268.212 31.8852 270.006 32.9174C271.8 33.9496 273.179 35.4133 274.143 37.3086C275.108 39.2038 275.59 41.4713 275.59 44.1111V47.3093H256.832C256.9 50.0336 257.628 52.1319 259.015 53.6041C260.42 55.0763 262.383 55.8124 264.904 55.8124C266.698 55.8124 268.305 55.6432 269.727 55.3047C271.165 54.9494 272.646 54.4333 274.169 53.7564V58.6045C272.764 59.2644 271.334 59.7467 269.879 60.0513C268.424 60.3558 266.681 60.5081 264.65 60.5081C261.892 60.5081 259.464 59.9751 257.365 58.909C255.284 57.8261 253.651 56.2185 252.467 54.0864C251.299 51.9542 250.715 49.306 250.715 46.1417C250.715 42.9942 251.248 40.3206 252.314 38.1208C253.38 35.921 254.878 34.2457 256.807 33.0951C258.736 31.9444 260.987 31.3691 263.559 31.3691ZM263.559 35.8618C261.68 35.8618 260.157 36.4709 258.99 37.6893C257.839 38.9077 257.162 40.6929 256.959 43.045H269.752C269.735 41.6405 269.498 40.3968 269.041 39.3138C268.601 38.2308 267.925 37.3847 267.011 36.7755C266.114 36.1663 264.963 35.8618 263.559 35.8618ZM296.556 31.3691C297.03 31.3691 297.546 31.3944 298.104 31.4452C298.663 31.496 299.145 31.5637 299.551 31.6483L298.993 37.2324C298.637 37.1309 298.197 37.0547 297.673 37.004C297.165 36.9532 296.708 36.9278 296.302 36.9278C295.236 36.9278 294.221 37.1055 293.256 37.4609C292.292 37.7993 291.437 38.3239 290.693 39.0346C289.948 39.7284 289.364 40.5998 288.941 41.649C288.518 42.6981 288.307 43.9165 288.307 45.304V60.0005H282.316V31.9021H286.987L287.799 36.8517H288.078C288.637 35.8533 289.33 34.9395 290.16 34.1104C290.989 33.2812 291.936 32.6213 293.002 32.1305C294.085 31.6229 295.27 31.3691 296.556 31.3691ZM311.176 60.0005L300.49 31.9021H306.81L312.598 48.4007C312.97 49.4498 313.308 50.5836 313.613 51.8019C313.918 53.0203 314.129 54.0441 314.248 54.8732H314.451C314.569 54.0102 314.797 52.978 315.136 51.7766C315.474 50.5582 315.821 49.4329 316.177 48.4007L321.964 31.9021H328.259L317.573 60.0005H311.176ZM338.488 31.9021V60.0005H332.523V31.9021H338.488ZM335.543 21.1399C336.457 21.1399 337.244 21.3853 337.904 21.876C338.581 22.3667 338.919 23.2128 338.919 24.4143C338.919 25.5988 338.581 26.4449 337.904 26.9525C337.244 27.4432 336.457 27.6886 335.543 27.6886C334.596 27.6886 333.792 27.4432 333.132 26.9525C332.489 26.4449 332.168 25.5988 332.168 24.4143C332.168 23.2128 332.489 22.3667 333.132 21.876C333.792 21.3853 334.596 21.1399 335.543 21.1399ZM358.362 60.5081C355.706 60.5081 353.404 59.992 351.458 58.9598C349.512 57.9276 348.015 56.3454 346.966 54.2133C345.916 52.0812 345.392 49.3737 345.392 46.0909C345.392 42.6727 345.967 39.8806 347.118 37.7147C348.268 35.5487 349.859 33.9496 351.89 32.9174C353.937 31.8852 356.281 31.3691 358.921 31.3691C360.596 31.3691 362.11 31.5383 363.464 31.8767C364.835 32.1982 365.994 32.5959 366.942 33.0697L365.165 37.8416C364.133 37.4185 363.075 37.0632 361.992 36.7755C360.909 36.4879 359.868 36.344 358.87 36.344C357.228 36.344 355.858 36.7078 354.758 37.4355C353.675 38.1631 352.863 39.2461 352.321 40.6844C351.797 42.1228 351.534 43.908 351.534 46.0401C351.534 48.1046 351.805 49.8475 352.347 51.2689C352.888 52.6734 353.692 53.7395 354.758 54.4671C355.824 55.1778 357.135 55.5332 358.692 55.5332C360.232 55.5332 361.611 55.347 362.83 54.9748C364.048 54.6025 365.199 54.1202 366.282 53.528V58.706C365.216 59.3152 364.073 59.7636 362.855 60.0513C361.637 60.3558 360.139 60.5081 358.362 60.5081ZM384.075 31.3691C386.579 31.3691 388.728 31.8852 390.522 32.9174C392.316 33.9496 393.695 35.4133 394.659 37.3086C395.624 39.2038 396.106 41.4713 396.106 44.1111V47.3093H377.348C377.416 50.0336 378.144 52.1319 379.531 53.6041C380.936 55.0763 382.899 55.8124 385.42 55.8124C387.214 55.8124 388.821 55.6432 390.243 55.3047C391.681 54.9494 393.162 54.4333 394.685 53.7564V58.6045C393.28 59.2644 391.85 59.7467 390.395 60.0513C388.94 60.3558 387.197 60.5081 385.166 60.5081C382.408 60.5081 379.98 59.9751 377.881 58.909C375.8 57.8261 374.167 56.2185 372.983 54.0864C371.815 51.9542 371.231 49.306 371.231 46.1417C371.231 42.9942 371.764 40.3206 372.83 38.1208C373.896 35.921 375.394 34.2457 377.323 33.0951C379.252 31.9444 381.503 31.3691 384.075 31.3691ZM384.075 35.8618C382.196 35.8618 380.673 36.4709 379.506 37.6893C378.355 38.9077 377.678 40.6929 377.475 43.045H390.268C390.251 41.6405 390.014 40.3968 389.557 39.3138C389.117 38.2308 388.44 37.3847 387.527 36.7755C386.63 36.1663 385.479 35.8618 384.075 35.8618Z" fill="black"/>
</g>
<defs>
<clipPath id="clip0_730_10">
<rect width="399.872" height="75.9756" fill="white"/>
</clipPath>
</defs>
</svg>
